<svg width="181" height="196" viewBox="0 0 181 196" fill="none" xmlns="http://www.w3.org/2000/svg">
<path d="M26.381 181.5C61.5483 200.037 118.566 200.037 153.733 181.5C188.901 162.963 188.905 132.915 153.733 114.382C118.562 95.8493 61.5483 95.8449 26.3766 114.382C-8.7951 132.92 -8.79074 162.954 26.381 181.5Z" fill="#F5F5F5"/>
<path d="M11.3002 158.301L12.9326 159.24C13.2255 159.388 13.5493 159.465 13.8776 159.465C14.206 159.465 14.5297 159.388 14.8226 159.24L90.2554 115.692C90.3699 115.654 90.4697 115.582 90.5405 115.484C90.6112 115.386 90.6493 115.269 90.6493 115.148C90.6493 115.028 90.6112 114.91 90.5405 114.813C90.4697 114.715 90.3699 114.642 90.2554 114.605L88.636 113.68C88.3431 113.531 88.0194 113.454 87.691 113.454C87.3627 113.454 87.039 113.531 86.7461 113.68L11.3002 157.21C11.1862 157.249 11.0872 157.322 11.017 157.42C10.9469 157.518 10.9092 157.635 10.9092 157.755C10.9092 157.876 10.9469 157.993 11.017 158.091C11.0872 158.189 11.1862 158.262 11.3002 158.301Z" fill="#E0E0E0"/>
<path d="M120.198 173.988C132.912 173.988 143.218 168.339 143.218 161.37C143.218 154.4 132.912 148.751 120.198 148.751C107.485 148.751 97.1782 154.4 97.1782 161.37C97.1782 168.339 107.485 173.988 120.198 173.988Z" fill="#E0E0E0"/>
<path d="M146.793 139.65C156.602 139.65 164.554 135.29 164.554 129.912C164.554 124.534 156.602 120.174 146.793 120.174C136.984 120.174 129.033 124.534 129.033 129.912C129.033 135.29 136.984 139.65 146.793 139.65Z" fill="#E0E0E0"/>
<path d="M155.479 120.126C155.453 117.896 157.011 113.261 159.289 110.336C161.568 107.412 165.177 105.251 167.775 106.107C170.193 106.901 169.957 110.061 167.072 112.187C164.187 114.313 159.822 116.988 158.578 120.628L155.937 125.098L155.479 120.126Z" fill="#89DCD9" fill-opacity="0.7"/>
<path opacity="0.1" d="M155.479 120.126C155.453 117.896 157.011 113.261 159.289 110.336C161.568 107.412 165.177 105.251 167.775 106.107C170.193 106.901 169.957 110.061 167.072 112.187C164.187 114.313 159.822 116.988 158.578 120.628L155.937 125.098L155.479 120.126Z" fill="black"/>
<path d="M155.353 123.182C155.388 123.178 155.421 123.162 155.447 123.138C155.473 123.114 155.49 123.082 155.497 123.047C156.898 115.417 162.982 109.158 166.649 107.748C166.69 107.732 166.723 107.701 166.741 107.661C166.759 107.621 166.76 107.575 166.745 107.534C166.737 107.514 166.725 107.496 166.711 107.481C166.696 107.465 166.678 107.453 166.659 107.445C166.639 107.436 166.619 107.432 166.597 107.431C166.576 107.431 166.555 107.435 166.535 107.442C162.795 108.878 156.596 115.242 155.187 122.99C155.183 123.011 155.183 123.032 155.188 123.053C155.192 123.074 155.201 123.093 155.213 123.111C155.225 123.128 155.241 123.143 155.259 123.155C155.277 123.166 155.297 123.174 155.318 123.177L155.353 123.182Z" fill="white"/>
<path d="M156.566 128.04C156.911 126.783 158.417 124.696 160.87 122.955C163.589 121.034 167.046 120.122 167.827 118.642C168.766 116.862 167.255 115.212 164.445 115.587C161.634 115.962 156.736 119.869 156.012 125.657L156.566 128.04Z" fill="#89DCD9" fill-opacity="0.7"/>
<path d="M155.986 126.73C156.017 126.727 156.047 126.715 156.071 126.696C156.096 126.677 156.115 126.651 156.125 126.621C158.378 120.074 163.327 117.726 165.627 117.398C165.67 117.392 165.708 117.369 165.734 117.335C165.76 117.301 165.772 117.258 165.767 117.215C165.764 117.194 165.758 117.173 165.747 117.155C165.736 117.136 165.722 117.12 165.705 117.107C165.688 117.094 165.668 117.084 165.647 117.079C165.627 117.074 165.605 117.072 165.584 117.075C163.039 117.438 158.12 119.83 155.815 126.517C155.808 126.537 155.806 126.558 155.807 126.579C155.808 126.6 155.814 126.621 155.823 126.64C155.832 126.659 155.845 126.676 155.861 126.69C155.877 126.704 155.896 126.715 155.916 126.722C155.938 126.731 155.962 126.734 155.986 126.73Z" fill="white"/>
<path d="M13.3345 157.201L13.0027 157.009C12.7237 156.827 12.4914 156.583 12.3246 156.294C12.1578 156.006 12.0611 155.683 12.0425 155.35V43.4977C12.0615 43.1647 12.1583 42.8409 12.325 42.5521C12.4918 42.2633 12.7239 42.0176 13.0027 41.8347L85.0746 0.22926C85.3723 0.0785384 85.7012 0 86.0349 0C86.3685 0 86.6975 0.0785384 86.9951 0.22926L87.3225 0.421311C87.6023 0.603192 87.8351 0.848652 88.002 1.13766C88.1689 1.42667 88.2651 1.75104 88.2827 2.08431V113.933C88.2651 114.266 88.1689 114.59 88.002 114.879C87.8351 115.168 87.6023 115.414 87.3225 115.596L15.255 157.201C14.9573 157.352 14.6284 157.43 14.2947 157.43C13.9611 157.43 13.6321 157.352 13.3345 157.201Z" fill="#89DCD9" fill-opacity="0.7"/>
<path opacity="0.4" d="M88.274 1.93154C88.2085 1.43395 87.8069 1.25063 87.3268 1.52561L15.2506 43.1354C14.9684 43.3133 14.7357 43.5595 14.5741 43.8512L12.3262 42.5418C12.49 42.2502 12.724 42.0041 13.0071 41.826L85.0746 0.22926C85.3722 0.0785384 85.7012 0 86.0348 0C86.3685 0 86.6974 0.0785384 86.9951 0.22926L87.3268 0.421311C87.5821 0.592202 87.7984 0.81506 87.9616 1.07531C88.1248 1.33555 88.2313 1.62733 88.274 1.93154Z" fill="white"/>
<path opacity="0.1" d="M15.0936 157.275C14.8138 157.387 14.5136 157.438 14.2127 157.425C13.9118 157.412 13.617 157.336 13.3476 157.201L13.0116 157.009C12.7326 156.827 12.5006 156.581 12.3345 156.292C12.1683 156.003 12.0728 155.679 12.0557 155.346V43.4977C12.0658 43.1646 12.162 42.8397 12.335 42.5549L14.5829 43.8643C14.4046 44.1439 14.2981 44.4633 14.273 44.794V156.647C14.273 157.197 14.6396 157.454 15.0936 157.275Z" fill="black"/>
<path d="M22.793 116.748L22.4612 116.556C22.1822 116.374 21.9499 116.13 21.7831 115.841C21.6163 115.553 21.5196 115.23 21.501 114.897V94.7931C21.5197 94.4601 21.6163 94.1361 21.7831 93.8473C21.9499 93.5584 22.1822 93.3128 22.4612 93.1301L87.8942 55.3177C88.1911 55.1671 88.5193 55.0885 88.8523 55.0885C89.1852 55.0885 89.5135 55.1671 89.8104 55.3177L90.1421 55.5098C90.4219 55.6917 90.6547 55.9371 90.8216 56.2261C90.9885 56.5152 91.0847 56.8395 91.1023 57.1728V77.2771C91.0847 77.6098 90.9885 77.9336 90.8216 78.2219C90.6547 78.5102 90.4218 78.7548 90.1421 78.9358L24.7135 116.748C24.4158 116.899 24.0869 116.977 23.7532 116.977C23.4196 116.977 23.0906 116.899 22.793 116.748Z" fill="#EBEBEB"/>
<path d="M91.0936 57.0199C91.0281 56.5223 90.6266 56.339 90.1421 56.6139L24.7091 94.4307C24.4269 94.6086 24.1942 94.8548 24.0325 95.1465L21.7847 93.8371C21.9465 93.5429 22.1809 93.295 22.4656 93.1169L87.8942 55.3045C88.1911 55.1538 88.5193 55.0753 88.8523 55.0753C89.1852 55.0753 89.5135 55.1538 89.8103 55.3045L90.1421 55.4965C90.401 55.6669 90.6201 55.8913 90.7844 56.1542C90.9486 56.4171 91.0541 56.7124 91.0936 57.0199Z" fill="#FAFAFA"/>
<path d="M24.5477 116.827C24.2677 116.938 23.9673 116.989 23.6663 116.975C23.3653 116.961 23.0706 116.884 22.8018 116.748L22.4613 116.56C22.1843 116.376 21.9541 116.13 21.7889 115.841C21.6237 115.553 21.5281 115.229 21.5098 114.897V94.793C21.5199 94.4599 21.6161 94.1351 21.7891 93.8502L24.037 95.1596C23.8658 95.4456 23.7683 95.7695 23.7533 96.1024V116.211C23.7489 116.744 24.0981 117.001 24.5477 116.827Z" fill="#E0E0E0"/>
<path d="M33.9627 93.082C37.6946 90.9258 40.7194 92.6019 40.7194 96.827C40.7194 101.052 37.6903 106.185 33.954 108.293C30.2177 110.402 27.1929 108.73 27.1929 104.548C27.1929 100.367 30.2308 95.2382 33.9627 93.082Z" fill="#89DCD9" fill-opacity="0.7"/>
<path d="M22.793 143.993L22.4612 143.801C22.1822 143.619 21.9499 143.375 21.7831 143.086C21.6163 142.798 21.5196 142.475 21.501 142.143V122.038C21.5197 121.705 21.6163 121.381 21.7831 121.092C21.9499 120.803 22.1822 120.558 22.4612 120.375L87.8942 82.5628C88.1911 82.4121 88.5193 82.3336 88.8523 82.3336C89.1852 82.3336 89.5135 82.4121 89.8104 82.5628L90.1421 82.7548C90.4221 82.9364 90.6552 83.1818 90.8221 83.4709C90.989 83.76 91.0851 84.0845 91.1023 84.4178V104.522C91.0847 104.855 90.9885 105.179 90.8216 105.467C90.6547 105.755 90.4218 106 90.1421 106.181L24.7135 143.993C24.4158 144.144 24.0869 144.222 23.7532 144.222C23.4196 144.222 23.0906 144.144 22.793 143.993Z" fill="#EBEBEB"/>
<path d="M91.0936 84.2607C91.0281 83.7631 90.6266 83.5842 90.1421 83.8591L24.7091 121.676C24.4281 121.853 24.1956 122.098 24.0325 122.387L21.7847 121.078C21.9502 120.796 22.1844 120.56 22.4656 120.393L87.8942 82.5803C88.1911 82.4296 88.5193 82.351 88.8523 82.351C89.1852 82.351 89.5135 82.4296 89.8103 82.5803L90.1421 82.7723C90.3973 82.9385 90.6142 83.1573 90.7783 83.4139C90.9424 83.6706 91.0499 83.9592 91.0936 84.2607Z" fill="#FAFAFA"/>
<path d="M24.5477 144.067C24.268 144.179 23.9677 144.231 23.6667 144.218C23.3657 144.205 23.0709 144.129 22.8018 143.993L22.4613 143.801C22.1836 143.618 21.9528 143.372 21.7875 143.083C21.6223 142.794 21.5271 142.471 21.5098 142.138V122.038C21.5193 121.705 21.6156 121.38 21.7891 121.095L24.037 122.405C23.8663 122.693 23.7689 123.018 23.7533 123.352V143.461C23.7489 143.989 24.0981 144.246 24.5477 144.067Z" fill="#E0E0E0"/>
<path d="M33.9627 120.327C37.6946 118.171 40.7194 119.847 40.7194 124.072C40.7194 128.297 37.6903 133.43 33.954 135.539C30.2177 137.647 27.1929 135.975 27.1929 131.794C27.1929 127.612 30.2308 122.479 33.9627 120.327Z" fill="#89DCD9" fill-opacity="0.7"/>
<path d="M22.793 71.1882L22.4612 70.9962C22.1822 70.8135 21.9499 70.5679 21.7831 70.279C21.6163 69.9902 21.5197 69.6662 21.501 69.3332V49.2463C21.5196 48.9138 21.6163 48.5905 21.7831 48.3023C21.9499 48.0142 22.1822 47.7694 22.4612 47.5876L87.8942 9.75777C88.1911 9.60709 88.5193 9.52856 88.8523 9.52856C89.1852 9.52856 89.5135 9.60709 89.8104 9.75777L90.1421 9.94983C90.4218 10.1308 90.6547 10.3754 90.8216 10.6637C90.9885 10.952 91.0847 11.2758 91.1023 11.6085V31.7128C91.0847 32.0461 90.9885 32.3704 90.8216 32.6595C90.6547 32.9485 90.4219 33.1939 90.1421 33.3758L24.7135 71.1882C24.4158 71.3389 24.0869 71.4175 23.7532 71.4175C23.4196 71.4175 23.0906 71.3389 22.793 71.1882Z" fill="#EBEBEB"/>
<path d="M91.0936 11.4555C91.0281 10.9579 90.6266 10.779 90.1421 11.054L24.7091 48.8707C24.4261 49.0457 24.1931 49.2908 24.0325 49.5822L21.7847 48.2728C21.9455 47.979 22.1802 47.7322 22.4656 47.5569L87.8942 9.74453C88.1911 9.59385 88.5193 9.51532 88.8523 9.51532C89.1852 9.51532 89.5135 9.59385 89.8103 9.74453L90.1421 9.93658C90.4009 10.1061 90.62 10.3296 90.7842 10.5918C90.9485 10.854 91.054 11.1487 91.0936 11.4555Z" fill="#FAFAFA"/>
<path d="M24.5476 71.2623C24.268 71.3743 23.9677 71.4257 23.6667 71.4129C23.3657 71.4001 23.0709 71.3235 22.8017 71.1881L22.4613 70.996C22.1816 70.8123 21.9493 70.5651 21.7832 70.2746C21.6171 69.9841 21.5219 69.6585 21.5054 69.3243V49.2461C21.5147 48.9115 21.611 48.5851 21.7847 48.299L24.0326 49.6084C23.8612 49.8959 23.7638 50.2213 23.7489 50.5556V70.6337C23.7489 71.1837 24.0981 71.4369 24.5476 71.2623Z" fill="#E0E0E0"/>
<path d="M33.9627 47.522C37.6946 45.3658 40.7194 47.0419 40.7194 51.2627C40.7194 55.4835 37.6903 60.6209 33.954 62.7334C30.2177 64.846 27.1929 63.1699 27.1929 58.9884C27.1929 54.8069 30.2308 49.6826 33.9627 47.522Z" fill="#89DCD9" fill-opacity="0.7"/>
<path d="M27.3935 96.7135L27.0618 96.5214C26.782 96.3396 26.5492 96.0941 26.3823 95.8051C26.2154 95.5161 26.1192 95.1917 26.1016 94.8584V74.7541C26.1199 74.421 26.2164 74.0969 26.3832 73.808C26.55 73.5191 26.7825 73.2735 27.0618 73.0911L92.4904 35.2787C92.7881 35.128 93.117 35.0494 93.4507 35.0494C93.7843 35.0494 94.1133 35.128 94.4109 35.2787L94.7427 35.4664C95.0215 35.6493 95.2536 35.895 95.4204 36.1838C95.5872 36.4726 95.6839 36.7964 95.7029 37.1294V57.2337C95.6842 57.5667 95.5876 57.8907 95.4208 58.1796C95.2541 58.4684 95.0218 58.7141 94.7427 58.8967L29.3097 96.7135C29.0128 96.8642 28.6846 96.9427 28.3516 96.9427C28.0187 96.9427 27.6904 96.8642 27.3935 96.7135Z" fill="#37474F"/>
<path d="M95.6942 36.9809C95.6287 36.4834 95.2271 36.3 94.7426 36.5794L29.3097 74.3962C29.0265 74.5722 28.7923 74.8169 28.6288 75.1076L26.3853 73.7982C26.5456 73.5043 26.7785 73.2563 27.0618 73.078L92.4904 35.2787C92.7881 35.1279 93.117 35.0494 93.4507 35.0494C93.7843 35.0494 94.1133 35.1279 94.4109 35.2787L94.7426 35.4664C95.0006 35.6358 95.2191 35.8588 95.3832 36.1201C95.5474 36.3814 95.6535 36.675 95.6942 36.9809Z" fill="#455A64"/>
<path d="M29.1483 96.7877C28.8685 96.8992 28.5683 96.9502 28.2674 96.9374C27.9664 96.9247 27.6716 96.8483 27.4023 96.7135L27.0662 96.5214C26.7877 96.3385 26.5561 96.0927 26.3901 95.8039C26.224 95.515 26.1282 95.1911 26.1104 94.8584V74.7541C26.122 74.4206 26.2197 74.0958 26.3941 73.8113L28.6376 75.1207C28.4676 75.4069 28.3716 75.7309 28.3582 76.0635V96.1722C28.3495 96.7047 28.6769 96.9623 29.1483 96.7877Z" fill="#263238"/>
<path d="M38.5633 73.0431C42.2952 70.8912 45.32 72.5673 45.32 76.7881C45.32 81.0089 42.2908 86.1463 38.5546 88.2588C34.8183 90.3714 31.7891 88.6953 31.7935 84.5138C31.7978 80.3323 34.8314 75.1993 38.5633 73.0431Z" fill="#F5F5F5"/>
<path d="M38.7158 85.1903C38.5977 85.2799 38.4552 85.3316 38.3072 85.3387C38.1592 85.3457 38.0125 85.3077 37.8864 85.2296L34.9184 82.9861C34.5212 82.6849 34.5692 81.86 35.0275 81.1354C35.4858 80.4109 36.1798 80.0704 36.5726 80.3716L38.6416 81.9385L44.39 69.5905C44.7479 68.8179 45.4332 68.281 45.9221 68.4338C46.4109 68.5866 46.5157 69.3068 46.1534 70.0662L39.5887 84.1646C39.4072 84.5702 39.1153 84.9165 38.7463 85.1641L38.7158 85.1903Z" fill="#89DCD9" fill-opacity="0.7"/>
<path d="M95.6856 66.8363L93.787 65.7408C92.962 65.2694 91.9537 65.7408 91.4212 66.0638L90.2209 65.3959C88.7849 64.523 86.7858 66.3431 86.3406 66.7752L85.8255 66.4828C84.3022 65.5662 81.5306 68.0236 81.5306 68.0236V58.8487L82.7352 58.2682L80.8191 57.1595C80.5445 57.0377 80.2428 56.9901 79.944 57.0215C79.6453 57.0529 79.36 57.1622 79.1168 57.3385C78.4078 57.8001 77.8176 58.4226 77.3944 59.1552C76.9712 59.8879 76.7269 60.71 76.6812 61.5549V82.7548C74.9353 81.4454 73.0672 80.6597 71.4435 80.9522C70.15 81.2545 69.0183 82.0339 68.2746 83.1346C67.4715 84.5575 68.7984 85.4479 70.5094 87.4033C72.2204 89.3588 73.7044 91.6809 75.2496 93.1213C76.0122 93.894 76.918 94.5107 77.9165 94.937V97.6956L79.7934 98.7824L92.2243 89.4374V86.6744C92.2243 86.6744 93.9965 79.5947 94.5639 76.6353C95.1095 73.7895 95.6115 69.2457 94.673 66.8887L95.69 66.8189L95.6856 66.8363Z" fill="#89DCD9" fill-opacity="0.7"/>
<path opacity="0.4" d="M95.6856 66.8363L93.787 65.7408C92.962 65.2694 91.9537 65.7408 91.4212 66.0638L90.2209 65.3959C88.7849 64.523 86.7858 66.3431 86.3406 66.7752L85.8255 66.4828C84.3022 65.5662 81.5306 68.0236 81.5306 68.0236V58.8487L82.7352 58.2682L80.8191 57.1595C80.5445 57.0377 80.2428 56.9901 79.944 57.0215C79.6453 57.0529 79.36 57.1622 79.1168 57.3385C78.4078 57.8001 77.8176 58.4226 77.3944 59.1552C76.9712 59.8879 76.7269 60.71 76.6812 61.5549V82.7548C74.9353 81.4454 73.0672 80.6597 71.4435 80.9522C70.15 81.2545 69.0183 82.0339 68.2746 83.1346C67.4715 84.5575 68.7984 85.4479 70.5094 87.4033C72.2204 89.3588 73.7044 91.6809 75.2496 93.1213C76.0122 93.894 76.918 94.5107 77.9165 94.937V97.6956L79.7934 98.7824L92.2243 89.4374V86.6744C92.2243 86.6744 93.9965 79.5947 94.5639 76.6353C95.1095 73.7895 95.6115 69.2457 94.673 66.8887L95.69 66.8189L95.6856 66.8363Z" fill="white"/>
<path d="M81.6702 91.2007L72.2684 85.7753L68.1524 83.3965C67.6286 84.6797 68.8988 85.5789 70.505 87.4164C72.203 89.3588 73.7001 91.694 75.2452 93.1344C76.0078 93.9071 76.9137 94.5238 77.9121 94.9501V97.6956L79.789 98.7824L82.5345 96.7179C82.1809 94.3871 81.6702 91.2007 81.6702 91.2007Z" fill="#89DCD9" fill-opacity="0.7"/>
<path d="M78.5624 62.6505L76.6855 61.5637V83.8024L78.5624 83.8504V62.6505Z" fill="#89DCD9" fill-opacity="0.7"/>
<path d="M93.3109 68.2637L94.7687 67.1899C94.7338 67.0939 94.7076 66.9979 94.6683 66.9062L95.2008 66.8713L94.0311 66.8189L92.08 65.7408C91.852 65.8322 91.6316 65.9417 91.4209 66.0681L92.032 66.4217L93.3109 68.2637Z" fill="#89DCD9" fill-opacity="0.7"/>
<path d="M88.1475 67.945L89.5137 66.9062L87.6281 65.7626C87.173 66.055 86.7475 66.3913 86.3579 66.7665L87.6674 67.526L88.1475 67.945Z" fill="#89DCD9" fill-opacity="0.7"/>
<path d="M85.293 67.8446L83.4248 66.7534L83.4335 66.736V69.0973L85.6072 68.3029L85.293 67.8446Z" fill="#89DCD9" fill-opacity="0.7"/>
<g opacity="0.15">
<path d="M81.6702 91.2007L72.2684 85.7753L68.1524 83.3965C67.6286 84.6797 68.8988 85.5789 70.505 87.4164C72.203 89.3588 73.7001 91.694 75.2452 93.1344C76.0078 93.9071 76.9137 94.5238 77.9121 94.9501V97.6956L79.789 98.7824L82.5345 96.7179C82.1809 94.3871 81.6702 91.2007 81.6702 91.2007Z" fill="black"/>
<path d="M78.5624 62.6505L76.6855 61.5637V83.8024L78.5624 83.8504V62.6505Z" fill="black"/>
<path d="M93.3109 68.2637L94.7687 67.1899C94.7338 67.0939 94.7076 66.9979 94.6683 66.9062L95.2008 66.8713L94.0311 66.8189L92.08 65.7408C91.852 65.8322 91.6316 65.9417 91.4209 66.0681L92.032 66.4217L93.3109 68.2637Z" fill="black"/>
<path d="M88.1475 67.945L89.5137 66.9062L87.6281 65.7626C87.173 66.055 86.7475 66.3912 86.3579 66.7665L87.6674 67.526L88.1475 67.945Z" fill="black"/>
<path d="M85.293 67.8446L83.4248 66.7534L83.4335 66.736V69.0973L85.6072 68.3029L85.293 67.8446Z" fill="black"/>
</g>
<path d="M79.7888 98.7999V96.037C78.7907 95.6046 77.8864 94.9819 77.1263 94.2037C75.5812 92.7633 74.0709 90.4238 72.3861 88.4858C70.7013 86.5478 69.3307 85.6356 70.1513 84.217C70.895 83.1164 72.0267 82.337 73.3202 82.0346C74.9526 81.7422 76.812 82.5409 78.558 83.8373V62.6505C78.6031 61.806 78.8468 60.9841 79.2692 60.2515C79.6917 59.5188 80.2809 58.8962 80.9892 58.4341C82.3335 57.6571 83.4247 58.2857 83.4247 59.8395V69.0973C83.4247 69.0973 86.7813 66.1205 88.1344 67.945C88.1344 67.945 91.4342 64.4924 92.9357 67.4081C92.9357 67.4081 95.3538 65.457 96.4275 67.7224C97.5013 69.9877 96.9949 74.7803 96.4275 77.7396C95.8601 80.699 94.0836 87.7787 94.0836 87.7787V90.5416L79.7888 98.7999Z" fill="#89DCD9" fill-opacity="0.7"/>
<path d="M83.4336 73.0737C83.4336 73.0737 83.7392 68.8485 85.2931 67.8359H85.2363C84.5933 68.1825 83.989 68.5966 83.4336 69.0711V68.9926C83.4278 69.0048 83.4248 69.0183 83.4248 69.0318C83.4248 69.0454 83.4278 69.0588 83.4336 69.0711V73.0737Z" fill="#455A64"/>
<path d="M88.1475 67.945V71.8122C88.1475 71.8122 88.5839 67.8359 89.4569 66.8756C88.9825 67.183 88.5434 67.5416 88.1475 67.945Z" fill="#455A64"/>
<path d="M92.9312 67.4081V71.2885C92.9312 71.2885 93.1669 67.3819 94.0093 66.8058C93.6224 66.9529 93.2592 67.1558 92.9312 67.4081Z" fill="#455A64"/>
<path d="M79.1081 54.676C78.8025 54.8506 78.5581 54.7502 78.5581 54.4447V51.3893C78.5743 51.2107 78.6325 51.0384 78.7281 50.8867C78.8237 50.735 78.9539 50.608 79.1081 50.5163C79.4092 50.3417 79.6537 50.4465 79.6537 50.7477V53.803C79.6383 53.9813 79.5809 54.1535 79.486 54.3052C79.3912 54.457 79.2616 54.5841 79.1081 54.676Z" fill="#EBEBEB"/>
<path d="M74.5073 59.5166C74.2934 59.8832 73.9486 60.084 73.7347 59.953L71.9583 58.9273C71.7444 58.8051 71.7444 58.4035 71.9583 58.0543C72.1721 57.6833 72.517 57.4825 72.7308 57.6179L74.5073 58.6436C74.7386 58.744 74.7386 59.1455 74.5073 59.5166Z" fill="#EBEBEB"/>
<path d="M72.6263 65.8586V65.9459C72.6077 66.1356 72.5446 66.3182 72.4423 66.479C72.3399 66.6397 72.2011 66.7741 72.0371 66.8713L69.6102 68.2724C69.2873 68.46 69.021 68.3509 69.021 68.0236V67.9363C69.0406 67.7469 69.1041 67.5647 69.2064 67.404C69.3087 67.2434 69.4469 67.1088 69.6102 67.0109L72.0371 65.6098C72.3644 65.4221 72.6263 65.5313 72.6263 65.8586Z" fill="#EBEBEB"/>
<path d="M85.5854 58.4646V58.3773C85.6034 58.1869 85.6662 58.0034 85.7686 57.8418C85.871 57.6803 86.0101 57.5452 86.1747 57.4476L88.6015 56.0465C88.9245 55.8588 89.1908 55.9723 89.1908 56.2953V56.3826C89.1711 56.572 89.1077 56.7542 89.0054 56.9148C88.9031 57.0755 88.7648 57.21 88.6015 57.308L86.1747 58.7091C85.8561 58.8967 85.5854 58.7876 85.5854 58.4646Z" fill="#EBEBEB"/>
<path d="M83.6736 54.222C83.4597 54.0998 83.4597 53.7026 83.6736 53.3491L85.4501 50.2937C85.6639 49.9227 86.0088 49.7219 86.2226 49.8572C86.4365 49.9838 86.4365 50.381 86.2226 50.752L84.4462 53.8074C84.2497 54.1478 83.9006 54.3486 83.6736 54.222Z" fill="#EBEBEB"/>
<path d="M152.734 126.163V125.665C152.537 126.246 151.629 128.756 150.255 130.03C149.159 131.03 147.662 132.182 147.282 133.295C146.902 134.408 149.364 134.845 150.386 134.666C151.577 134.452 153.114 133.793 153.952 132.749C154.541 132.025 154.916 131.169 155.335 130.598C155.754 130.026 156.723 129.397 156.955 128.738C157.077 128.376 156.928 127.581 156.754 126.914C156.579 126.246 156.418 125.626 156.208 125.683V126.067C155.71 126.456 155.094 126.663 154.462 126.652C153.947 126.652 152.729 126.547 152.734 126.163Z" fill="#263238"/>
<path d="M149.259 130.89C149.6 130.589 149.945 130.292 150.254 130.017C151.215 129.144 151.948 127.651 152.371 126.634C152.611 126.054 152.734 125.433 152.734 124.805V122.828H156.226V126.049V126.137C156.06 126.857 154.48 128.756 153.559 130.03C152.952 130.868 151.813 131.933 150.42 132.121C149.08 132.295 148.413 131.881 149.259 130.89Z" fill="#FFA8A7"/>
<path d="M139.189 122.737V122.239C138.993 122.824 138.081 125.334 136.706 126.604C135.61 127.603 134.113 128.76 133.733 129.873C133.354 130.986 135.815 131.423 136.837 131.239C138.028 131.03 139.565 130.366 140.403 129.327C140.992 128.603 141.367 127.743 141.786 127.176C142.205 126.608 143.179 125.971 143.406 125.312C143.528 124.949 143.38 124.159 143.205 123.492C143.03 122.824 142.869 122.182 142.659 122.256V122.636C142.163 123.028 141.546 123.236 140.913 123.225C140.416 123.225 139.185 123.125 139.189 122.737Z" fill="#263238"/>
<path d="M135.715 127.468C136.051 127.162 136.396 126.87 136.706 126.595C137.666 125.722 138.4 124.225 138.823 123.208C139.064 122.63 139.189 122.01 139.19 121.383V119.402H142.66V122.623V122.71C142.494 123.435 140.914 125.351 139.993 126.604C139.386 127.442 138.247 128.511 136.855 128.694C135.532 128.869 134.864 128.459 135.715 127.468Z" fill="#FFA8A7"/>
<path d="M155.518 72.1832C158.211 78.0626 155.418 98.7824 155.418 98.7824C155.501 99.734 156.592 101.615 156.998 105.814C157.478 110.777 156.243 123.238 156.243 123.238C155.716 123.543 155.122 123.715 154.514 123.739C153.906 123.764 153.301 123.64 152.751 123.378C152.751 123.378 149.442 104.609 148.823 99.6772C148.273 95.3691 147.216 85.9106 147.216 85.9106L144.253 99.6597C144.685 101.048 144.999 102.47 145.191 103.911C145.475 106.814 142.659 120.327 142.659 120.327C142.659 120.327 141.464 120.764 139.189 120.432C139.189 120.432 138.194 102.497 137.932 99.0007C137.496 93.13 139.05 74.8065 140.115 71.3321L155.518 72.1832Z" fill="#37474F"/>
<path d="M147.217 85.9106L146.344 80.4458C146.344 80.4458 142.642 79.682 140.966 78.1019C142.121 79.4592 143.633 80.4662 145.331 81.0089L146.313 85.2166L144.598 97.9487L147.217 85.9106Z" fill="#263238"/>
<path d="M145.021 51.59C144.176 51.5174 143.327 51.6613 142.554 52.008C141.78 52.3547 141.107 52.8929 140.6 53.5716C139.212 55.3874 133.891 62.3013 133.891 62.3013C133.891 62.3013 126.034 58.3729 125.663 57.9103C125.292 57.4476 125.497 56.5048 125.602 55.9898C125.707 55.4747 125.886 54.318 125.999 53.995C126.2 53.432 125.366 53.5847 124.873 54.1129C124.38 54.641 124.166 55.6711 123.917 55.8588C123.668 56.0465 121.809 53.8903 120.901 52.8558C119.993 51.8214 119.592 51.1099 118.967 51.5245C118.531 51.8301 118.81 52.4455 119.461 53.3316C119.764 53.7072 120.043 54.1007 120.299 54.5101C120.373 54.6672 120.137 54.7938 120.041 54.8811C119.867 55.0382 119.552 55.3176 119.531 55.5402C119.535 55.6746 119.526 55.8091 119.504 55.9417C119.421 56.2385 119.068 56.3782 118.954 56.6663C118.88 56.8714 118.954 57.1028 118.919 57.3254C118.893 57.4651 118.815 57.5916 118.789 57.7357C118.78 57.8759 118.801 58.0163 118.852 58.1474C118.902 58.2785 118.98 58.3972 119.081 58.4952C119.714 59.2546 120.582 59.5427 121.416 60.0054C122.11 60.3895 122.826 60.5554 123.625 60.9089C124.424 61.2625 133.686 67.6875 135.152 66.8756C136.619 66.0637 144.187 57.273 144.187 57.273C146.37 53.6458 145.021 51.59 145.021 51.59Z" fill="#FFA8A7"/>
<path d="M150.77 51.7515C154.218 51.9916 154.462 53.6589 155.326 55.4791C155.959 56.8852 156.017 58.4829 155.488 59.9312L153.074 66.8887C153.074 66.8887 154.2 69.6123 155.51 72.1832C149.473 75.5529 141.935 73.7807 140.119 71.3103C140.041 70.7865 140.508 66.7097 140.796 64.0472C139.731 61.3803 139.452 59.6824 139.901 57.9365C140.735 54.6628 143.965 51.4765 145.396 51.59L150.77 51.7515Z" fill="#F5F5F5"/>
<path d="M147.448 48.8926H148.788C149.715 48.8926 150.634 48.7097 151.491 48.3545C152.348 47.9992 153.126 47.4786 153.782 46.8223C154.437 46.1659 154.957 45.3869 155.311 44.5295C155.665 43.6722 155.847 42.7535 155.846 41.8259C155.845 39.9444 155.096 38.1403 153.765 36.8103C152.435 35.4802 150.63 34.7331 148.748 34.7331H147.487C145.61 34.7389 143.811 35.4887 142.486 36.8182C141.16 38.1478 140.416 39.9486 140.416 41.8259C140.413 43.6951 141.151 45.4893 142.47 46.8143C143.788 48.1393 145.579 48.8868 147.448 48.8926Z" fill="#263238"/>
<path d="M159.622 52.6114C158.516 52.6102 157.457 52.1707 156.675 51.3892C155.894 50.6077 155.454 49.5482 155.453 48.443V39.5126C156.001 39.5126 156.543 39.6205 157.049 39.8303C157.555 40.04 158.015 40.3475 158.402 40.735C158.789 41.1225 159.096 41.5826 159.305 42.0888C159.515 42.5951 159.622 43.1376 159.622 43.6853V52.6114Z" fill="#263238"/>
<path d="M156.217 37.9325L155.173 39.6086C155.28 39.6829 155.4 39.7349 155.527 39.7614C155.655 39.7878 155.786 39.7882 155.913 39.7625C156.04 39.7368 156.161 39.6855 156.268 39.6118C156.375 39.5381 156.466 39.4434 156.535 39.3336C156.672 39.1037 156.715 38.8302 156.656 38.5694C156.596 38.3087 156.439 38.0807 156.217 37.9325Z" fill="#263238"/>
<path d="M142.93 37.867C142.114 38.3472 141.106 40.3986 141.206 44.7023C141.289 48.3513 142.472 49.2505 143.066 49.5036C143.659 49.7568 144.812 49.604 145.916 49.4163V51.5987C145.916 51.5987 144.379 53.384 144.475 54.3879C144.571 55.3918 146.697 55.6275 148.137 54.6498C149.07 53.9764 149.87 53.1375 150.499 52.1749V46.9022C150.615 47.0457 150.759 47.1646 150.922 47.2519C151.085 47.3392 151.264 47.3931 151.448 47.4106C151.632 47.4281 151.818 47.4087 151.994 47.3536C152.171 47.2986 152.335 47.2089 152.476 47.0899C153.707 46.2737 153.755 44.2528 153.039 43.5282C152.323 42.8036 150.783 43.035 150.499 44.0345C150.499 44.0345 148.722 44.1 146.361 42.8036C145.441 42.3084 144.651 41.6033 144.055 40.7456C143.459 39.8879 143.074 38.9017 142.93 37.867Z" fill="#FFA8A7"/>
<path d="M145.685 43.7857C145.68 43.876 145.703 43.9655 145.75 44.043C145.796 44.1205 145.865 44.1824 145.946 44.2211C146.028 44.2597 146.12 44.2733 146.209 44.2602C146.298 44.2471 146.382 44.2078 146.449 44.1473C146.516 44.0868 146.564 44.0077 146.586 43.9201C146.609 43.8325 146.605 43.7403 146.575 43.655C146.545 43.5697 146.49 43.4951 146.418 43.4407C146.346 43.3863 146.259 43.3545 146.169 43.3492C146.048 43.3466 145.93 43.3903 145.84 43.4714C145.75 43.5525 145.695 43.6649 145.685 43.7857Z" fill="#263238"/>
<path d="M145.156 46.8804L144.091 47.2165C144.11 47.2876 144.144 47.3541 144.189 47.4122C144.234 47.4702 144.291 47.5186 144.355 47.5544C144.419 47.5902 144.49 47.6128 144.563 47.6207C144.636 47.6286 144.71 47.6218 144.781 47.6006C144.925 47.5525 145.044 47.4506 145.114 47.3162C145.184 47.1819 145.199 47.0257 145.156 46.8804Z" fill="#F28F8F"/>
<path d="M141.926 42.3803L142.852 41.7343C142.813 41.6721 142.762 41.6185 142.702 41.5767C142.641 41.5349 142.573 41.5057 142.501 41.491C142.43 41.4763 142.355 41.4764 142.284 41.4912C142.212 41.506 142.144 41.5352 142.084 41.5771C141.959 41.6653 141.874 41.7978 141.845 41.9473C141.815 42.0968 141.845 42.2518 141.926 42.3803Z" fill="#263238"/>
<path d="M142.162 43.454C142.157 43.5155 142.165 43.5773 142.184 43.6358C142.204 43.6943 142.235 43.7483 142.276 43.7947C142.316 43.841 142.366 43.8788 142.421 43.9057C142.477 43.9327 142.537 43.9483 142.598 43.9516C142.693 43.9593 142.788 43.9386 142.87 43.8922C142.953 43.8458 143.02 43.7758 143.062 43.6912C143.105 43.6065 143.121 43.5111 143.109 43.4171C143.097 43.3231 143.057 43.2349 142.995 43.1636C142.932 43.0924 142.85 43.0415 142.758 43.0173C142.667 42.9932 142.57 42.9969 142.481 43.0281C142.391 43.0593 142.313 43.1165 142.256 43.1924C142.199 43.2683 142.167 43.3593 142.162 43.454Z" fill="#263238"/>
<path d="M144.379 43.1921L144.305 45.955L142.852 45.5055L144.379 43.1921Z" fill="#F28F8F"/>
<path d="M145.916 49.4251C147.09 49.2723 149.503 48.5783 149.879 47.6268C149.727 48.1094 149.432 48.5342 149.032 48.8446C148.312 49.46 145.916 50.154 145.916 50.154V49.4251Z" fill="#F28F8F"/>
<path opacity="0.1" d="M149.224 72.838C149.697 72.729 150.144 72.5267 150.537 72.2429C150.931 71.9591 151.264 71.5995 151.517 71.1852C151.77 70.7709 151.938 70.3102 152.01 69.8303C152.082 69.3503 152.058 68.8607 151.939 68.3902C151.869 68.1033 151.704 67.8485 151.471 67.667C151.238 67.4856 150.951 67.3882 150.656 67.3907C151.043 67.134 151.376 66.8032 151.635 66.4175C151.894 66.0317 152.075 65.5985 152.166 65.1428L152.899 60.778C152.988 60.067 152.924 59.3453 152.712 58.661L155.138 55.8545L155.575 56.1644C155.944 57.3971 155.908 58.7155 155.474 59.9268L153.074 66.8887C153.074 66.8887 154.2 69.6124 155.509 72.1832C153.547 73.2419 151.38 73.8676 149.155 74.0182C146.93 74.1688 144.699 73.8408 142.611 73.0562C144.81 73.4008 147.053 73.3268 149.224 72.838Z" fill="black"/>
<path d="M161.695 69.0755C158.561 56.2647 156.243 51.9916 152.437 52.0527C151.324 53.3621 151.634 57.3952 153.388 59.8308C153.388 59.8308 157.317 68.0934 157.932 71.0309C158.478 73.6105 159.102 76.8579 159.063 79.0753C159.05 79.4687 158.895 79.8442 158.626 80.1315C157.91 80.9085 157.91 81.5327 157.443 82.3882C157.081 83.0603 156.684 83.3135 156.797 83.4619C156.947 83.6215 157.151 83.7191 157.369 83.7353C157.588 83.7514 157.804 83.685 157.976 83.5492C158.306 83.2999 158.599 83.0062 158.849 82.6762C158.725 83.4983 158.487 84.299 158.142 85.0551C157.339 86.8665 157.535 87.7918 159.979 87.1458C161.511 86.7399 162.476 85.4654 162.707 81.7771C162.818 80.4209 162.831 79.0584 162.747 77.7003C162.437 74.2085 162.201 71.1357 161.695 69.0755Z" fill="#FFA8A7"/>
<path d="M130.599 105.701C130.936 93.2304 129.936 90.2449 126.619 87.9621L125.331 95.1859C125.331 95.1859 126.841 103.697 126.68 106.534C126.54 109.027 126.296 112.143 125.706 114.155C125.603 114.518 125.368 114.829 125.047 115.028C124.201 115.556 123.86 116.098 123.223 116.774C122.725 117.298 122.302 117.425 122.35 117.59C122.446 117.774 122.608 117.914 122.803 117.983C122.998 118.053 123.211 118.047 123.402 117.966C123.824 117.796 124.225 117.577 124.598 117.315C124.305 118.08 123.891 118.792 123.371 119.424C122.184 120.877 122.132 121.772 124.528 121.794C126.025 121.794 127.221 120.882 128.352 117.577C128.79 116.366 129.141 115.124 129.403 113.863C129.997 110.567 130.547 107.709 130.599 105.701Z" fill="#B16668"/>
<path d="M123.83 87.0149C125.414 86.7836 127.566 87.1153 128.958 89.6033C130.351 92.0912 130.704 96.3731 130.848 100.629C130.848 100.629 128.085 102.938 124.768 101.803L123.83 87.0149Z" fill="#89DCD9" fill-opacity="0.7"/>
<path opacity="0.1" d="M123.83 87.0149C125.414 86.7836 127.566 87.1153 128.958 89.6033C130.351 92.0912 130.704 96.3731 130.848 100.629C130.848 100.629 128.085 102.938 124.768 101.803L123.83 87.0149Z" fill="black"/>
<path d="M128.487 155.591C128.736 155.687 128.801 156.167 128.84 157.118C128.867 157.838 129.024 159.1 128.177 159.349C127.33 159.597 126.095 159.471 125.558 158.794C124.882 157.921 124.428 157.197 123.463 156.175C122.625 155.276 121.717 154.429 121.385 153.181C121.08 152.042 121.333 151.549 122.11 151.217C123.175 150.781 124.855 152.251 125.689 152.483C126.405 152.692 128.234 155.495 128.487 155.591Z" fill="#263238"/>
<path d="M128.487 154.709V155.879C128.048 156.16 127.54 156.315 127.018 156.329C126.497 156.343 125.981 156.214 125.528 155.957C125.48 155.844 125.222 154.285 125.222 154.285L128.487 154.709Z" fill="#B16668"/>
<path d="M119.029 162.334C119.233 162.961 119.405 163.597 119.544 164.242C119.688 164.949 119.893 166.132 119.648 166.664C119.404 167.197 118.435 167.537 116.933 167.537C115.964 167.537 114.454 168.187 113.42 168.764C112.385 169.34 110.124 169.597 108.994 169.466C107.663 169.309 106.283 168.537 106.065 167.982C105.847 167.428 106.135 166.86 109.278 165.52C109.308 165.52 113.642 164.098 115.161 162.421L119.029 162.334Z" fill="#263238"/>
<path d="M119.029 161.068C119.029 161.068 119.029 161.941 119.029 162.435C119.029 162.928 118.448 163.67 116.929 163.613C115.864 163.578 115.122 163.29 115.183 162.413V161.147L119.029 161.068Z" fill="#B16668"/>
<path d="M129.246 139.183C128.988 137.106 128.526 135.059 127.867 133.072C127.867 133.072 128.282 127.835 128.483 122.833C128.701 117.446 128.483 110.681 128.574 109.337C128.574 109.337 111.202 105.845 110.892 112.043C110.582 118.241 111.578 134.111 111.765 136.844C111.953 139.576 112.442 141.999 113.009 146.446C113.577 150.894 115.126 161.147 115.126 161.147C115.728 161.453 116.395 161.606 117.07 161.592C117.744 161.578 118.405 161.398 118.993 161.068C118.993 161.068 120.216 148.624 120.089 145.469C119.99 143.132 119.588 140.818 118.893 138.585C118.893 138.585 119.22 133.452 119.513 128.983C119.805 124.513 120.111 122.374 120.176 120.436L120.552 120.249C120.552 120.249 120.931 127.948 121.137 130.685C121.342 133.422 121.778 136.041 122.568 141.117C123.258 145.525 125.301 154.844 125.301 154.844C127.282 155.918 128.469 154.705 128.469 154.705C128.469 154.705 129.783 143.007 129.246 139.183Z" fill="#37474F"/>
<path d="M120.194 120.441C120.194 120.441 124.41 118.363 126.518 116.491C126.518 116.491 124.559 119.249 121.988 120.471C121.988 120.471 121.076 130.039 121.08 129.847L120.552 120.423L120.194 120.441Z" fill="#263238"/>
<path d="M116.444 85.042L117.474 90.6988L122.581 90.3278L121.512 83.9115L116.444 85.042Z" fill="#B16668"/>
<path d="M127.981 89.9132C127.474 88.3767 125.523 86.7007 123.572 87.0629C120.67 87.5559 117.81 88.2694 115.017 89.1973C113.227 89.839 111.599 91.3797 111.451 97.2635C111.451 97.2635 110.853 110.978 110.844 113.627C115.331 115.404 120.01 115.351 122.581 114.788C127.959 113.614 128.605 111.384 128.605 111.384C128.605 111.384 128.675 101.524 128.513 97.2635C128.378 93.6451 128.33 90.9695 127.981 89.9132Z" fill="#89DCD9" fill-opacity="0.7"/>
<path d="M112.503 78.1587C112.503 78.1587 111.194 80.2276 111.364 80.424C111.534 80.6204 112.512 80.7776 112.512 80.7776L112.503 78.1587Z" fill="#B16668"/>
<path d="M116.1 72.4452C113.398 73.078 112.643 74.2871 112.481 78.6083C112.315 83.1215 112.809 84.527 113.415 85.1206C113.821 85.5221 116.034 85.5571 117.16 85.2122C118.553 84.7758 121.7 83.5973 123.131 81.2839C124.816 78.5777 125.196 74.9549 123.293 73.5102C120.613 71.5067 117.2 72.1833 116.1 72.4452Z" fill="#B16668"/>
<path d="M116.501 85.3519C117.418 84.6143 117.335 84.1385 117.335 84.1385C116.68 84.754 114.245 85.2777 113.407 85.1206C113.752 85.4742 115.336 85.5265 116.501 85.3519Z" fill="#9A4A4D"/>
<path d="M112.512 73.5669C113.306 74.9244 115.026 75.5748 115.026 75.5748C115.546 76.164 115.257 78.4686 116.17 78.8309C116.17 78.8309 116.563 77.1548 117.972 77.3338C119.382 77.5127 119.622 79.311 118.754 80.4241C117.885 81.5371 117.051 81.1399 117.051 81.1399C117.051 81.1399 117.147 83.5187 118.234 84.8456C118.234 84.8456 119.443 85.2079 121.639 84.6841C122.992 84.3655 124.873 82.6239 125.637 80.8125C127.261 76.9715 127.3 73.5495 124.851 72.5805C124.55 70.8346 123.153 70.0794 121.573 69.7521C118.173 69.0537 115.982 71.175 113.363 70.9917C111.862 70.8869 111.582 71.9738 112.512 73.5669Z" fill="#263238"/>
<path d="M124.908 73.1653L126.51 72.1702C126.378 71.9577 126.167 71.8064 125.924 71.7495C125.68 71.6927 125.424 71.7348 125.211 71.8668C124.999 71.9988 124.848 72.2097 124.791 72.4533C124.734 72.6968 124.776 72.9529 124.908 73.1653Z" fill="#263238"/>
<path d="M115.157 89.1755C115.157 89.1755 112.616 89.6469 111.289 91.6547C109.963 93.6625 104.218 100.864 104.218 100.864C104.218 100.864 95.9602 96.731 95.5543 96.2378C95.1483 95.7446 95.3753 94.7581 95.4888 94.2125C95.6023 93.6669 95.7856 92.4666 95.9253 92.1174C96.1348 91.5194 95.2575 91.6809 94.738 92.2352C94.2186 92.7896 93.9917 93.8764 93.7341 94.0641C93.4766 94.2518 91.5081 91.9908 90.5566 90.8996C89.605 89.8084 89.1554 89.0446 88.5138 89.4941C88.0555 89.8215 88.3523 90.4675 89.0332 91.4016C89.3536 91.7933 89.6453 92.2076 89.9062 92.6412C89.9891 92.807 89.736 92.9423 89.6399 93.0296C89.4523 93.1955 89.1249 93.4661 89.0987 93.728C89.1126 93.8732 89.1126 94.0193 89.0987 94.1645C89.007 94.4744 88.6229 94.601 88.5138 94.924C88.4353 95.1466 88.5138 95.391 88.4789 95.6223C88.4483 95.7707 88.3698 95.9017 88.3392 96.0588C88.3308 96.207 88.354 96.3553 88.4075 96.4938C88.4609 96.6323 88.5433 96.7578 88.6491 96.8619C89.3169 97.6607 90.2336 97.9662 91.1109 98.4507C91.8398 98.8567 92.5949 99.0313 93.4373 99.4066C94.2797 99.782 104.179 107.097 105.724 106.246C107.269 105.395 115.187 96.1418 115.187 96.1418C115.856 95.1019 116.209 93.8905 116.204 92.6541C116.198 91.4177 115.835 90.2094 115.157 89.1755Z" fill="#B16668"/>
<path d="M116.043 88.8787C114.952 89.0009 113.424 88.8001 111.281 91.096C109.56 93.0663 107.957 95.1359 106.479 97.2941C106.761 98.4279 107.364 99.4564 108.216 100.256C109.067 101.056 110.132 101.593 111.281 101.803C111.281 101.803 115.026 97.9662 116.082 95.8493C117.138 93.7324 117.326 90.3016 116.043 88.8787Z" fill="#89DCD9" fill-opacity="0.7"/>
<path opacity="0.1" d="M116.043 88.8787C114.952 89.0009 113.424 88.8001 111.281 91.096C109.56 93.0663 107.957 95.1359 106.479 97.2941C106.761 98.4279 107.364 99.4564 108.216 100.256C109.067 101.056 110.132 101.593 111.281 101.803C111.281 101.803 115.026 97.9662 116.082 95.8493C117.138 93.7324 117.326 90.3016 116.043 88.8787Z" fill="black"/>
</svg>
