<svg width="32" height="32" viewBox="0 0 32 32" fill="none" xmlns="http://www.w3.org/2000/svg">
<g clip-path="url(#clip0_1977_9)">
<rect width="32" height="32" fill="white"/>
<path d="M26.6636 4.87569C26.6934 5.38875 26.7073 5.90289 26.7585 6.41275C26.8001 6.82022 26.7254 7.18182 26.5164 7.53702C26.0417 8.34342 25.599 9.16902 25.1244 9.97435C23.4849 12.7573 21.9244 15.5861 20.3244 18.3914C19.9809 18.9941 19.6193 19.5872 19.2652 20.1845C19.1724 20.3413 19.07 20.4896 18.9345 20.6133C18.6444 20.8768 18.3521 20.8906 18.0374 20.6506C17.966 20.5962 17.8956 20.5354 17.8401 20.465C17.7281 20.3232 17.6129 20.1813 17.5244 20.0256C17.0902 19.2629 17.087 19.0741 17.5201 18.3072C18.5878 16.4138 19.662 14.5248 20.7308 12.6325C22.5644 9.38662 24.3969 6.14075 26.2316 2.89489C26.2966 2.77969 26.3297 2.63889 26.4641 2.57275C26.6252 2.67195 26.5601 2.83835 26.5697 2.97275C26.6113 3.60529 26.6369 4.23995 26.6689 4.87355C26.6668 4.87355 26.6657 4.87355 26.6636 4.87355V4.87569Z" fill="#074678"/>
<path d="M14.96 5.17554C15.5627 5.18834 16.0555 5.31527 16.511 5.57127C17.0507 5.8742 17.5872 6.18354 18.1227 6.49287C19.0518 7.02834 19.9787 7.56487 20.9078 8.1014C20.9472 8.1238 20.9867 8.14514 21.0262 8.1686C21.392 8.3862 21.375 8.3894 21.1478 8.75527C21.0656 8.88754 20.9984 8.9014 20.8416 8.81394C20.4064 8.57074 19.9744 8.32327 19.5424 8.07367C18.5355 7.49234 17.5307 6.9078 16.5238 6.32647C16.367 6.2358 16.2091 6.14514 16.0438 6.0726C15.2726 5.7334 14.5152 5.76647 13.7888 6.19954C13.4464 6.40434 13.183 6.6934 12.9824 7.04114C12.4544 7.9574 11.9232 8.87154 11.3942 9.78674C9.7611 12.6113 8.12804 15.4358 6.49604 18.2603C6.39044 18.4438 6.29443 18.6326 6.1899 18.8161C5.63203 19.7942 5.78243 21.2929 7.1307 22.063C7.9563 22.5355 8.7787 23.0123 9.60217 23.4881C11.6416 24.6657 13.6811 25.8433 15.7206 27.0219C16.5312 27.4902 17.3366 27.9681 18.1536 28.4246C18.9515 28.8705 19.7664 28.8875 20.5707 28.4331C20.975 28.2049 21.2662 27.8571 21.4966 27.4593C21.7536 27.0145 22.0075 26.5686 22.2646 26.1238C23.0646 24.7371 23.8656 23.3515 24.6667 21.9649C24.6891 21.9254 24.7094 21.8849 24.7339 21.8465C24.9184 21.5478 25.119 21.5339 25.3696 21.8059C25.4144 21.855 25.4251 21.9169 25.4006 21.9745C25.3654 22.0577 25.3195 22.1366 25.2747 22.2145C24.1963 24.0865 23.1168 25.9563 22.0395 27.8283C21.4763 28.8075 20.6304 29.3398 19.5062 29.4187C18.8832 29.4625 18.3136 29.2779 17.7792 28.9697C17.008 28.5238 16.2358 28.079 15.4646 27.6342C13.5691 26.5387 11.6736 25.4433 9.77817 24.3478C8.77123 23.7665 7.76003 23.1926 6.7595 22.6017C5.72057 21.9873 5.21923 21.0561 5.22777 19.8561C5.23097 19.3483 5.38884 18.8758 5.6427 18.4353C6.44377 17.0486 7.24377 15.663 8.04483 14.2763C9.22243 12.2358 10.4 10.1942 11.5776 8.15474C11.8795 7.63207 12.1686 7.0998 12.4939 6.591C13.0848 5.6694 13.951 5.22247 14.9568 5.17767L14.96 5.17554Z" fill="#00ACA5"/>
<path d="M12.0203 16.2153C12.016 16.098 12.048 15.9657 12.0917 15.8366C12.2763 15.2873 12.5707 14.7956 12.8971 14.322C12.9227 14.2846 12.9525 14.2505 12.9845 14.2185C13.1381 14.067 13.2864 14.05 13.4773 14.1598C13.6395 14.2537 13.7429 14.4009 13.8336 14.5609C14.0341 14.9161 14.2432 15.266 14.4437 15.6212C15.2384 17.0281 16.0341 18.434 16.8224 19.8441C17.0816 20.3081 17.3653 20.7508 17.7568 21.1156C17.8955 21.2446 17.9904 21.3908 17.9616 21.5924C17.9456 21.7033 17.9061 21.7961 17.7963 21.8441C17.3397 22.0436 16.8779 22.2313 16.3925 22.3476C16.0629 22.4265 15.7664 22.3017 15.5008 22.1118C15.2779 21.9518 15.104 21.7449 14.9621 21.5081C14.4683 20.6772 13.9701 19.8494 13.4731 19.0206C13.0688 18.3476 12.6688 17.6724 12.2592 17.0025C12.1141 16.7646 12.0128 16.5193 12.0192 16.2164L12.0203 16.2153Z" fill="#00ACA5"/>
<path d="M12.5973 14.5141C12.6037 14.5141 12.6123 14.512 12.6165 14.5152C12.6325 14.528 12.6283 14.5419 12.6048 14.5515C12.6016 14.5525 12.5909 14.5397 12.5877 14.5323C12.5867 14.528 12.5941 14.5205 12.5973 14.5141Z" fill="#074678"/>
</g>
<defs>
<clipPath id="clip0_1977_9">
<rect width="32" height="32" fill="white"/>
</clipPath>
</defs>
</svg>
